<svg width="47" height="50" viewBox="0 0 47 50" fill="none" xmlns="http://www.w3.org/2000/svg">
<g clip-path="url(#clip0_1010_592)">
<path d="M45.88 27.4046C46.2235 27.0992 46.4144 26.6794 46.4525 26.1832C46.4907 25.1908 45.7655 24.3893 44.7732 24.313C44.3151 24.2748 43.8571 24.4656 43.5136 24.7328L11.5289 42.2519C10.8037 42.5572 10.1548 43.0916 9.73499 43.8168C8.62812 45.6488 9.2388 48.0153 11.109 49.1221C12.4067 49.8855 13.9716 49.8092 15.193 49.0458C15.2693 48.9695 15.3838 48.9313 15.4602 48.855L45.2312 27.9389C45.3838 27.8244 45.8037 27.5191 45.88 27.4046Z" fill="url(#paint0_linear_1010_592)"/>
<path d="M45.9564 24.8473L21.6052 0.954198C21.0709 0.381679 20.3075 0 19.4297 0C17.7884 0 16.4907 1.33588 16.4907 2.93893C16.4907 3.74046 16.7961 4.42748 17.2922 4.96183C17.4449 5.1145 17.5976 5.22901 17.7503 5.34351L43.4755 27.3664C43.7808 27.6336 44.1625 27.8244 44.6205 27.8626C45.6129 27.9008 46.4144 27.1756 46.4907 26.1832C46.4907 25.687 46.2999 25.1908 45.9564 24.8473Z" fill="url(#paint1_linear_1010_592)"/>
<path d="M22.4063 22.7099C22.3681 22.7099 7.36814 10.8778 7.0628 10.687L6.37577 10.3434C4.16203 9.50375 1.71929 10.6488 0.879591 12.8625C0.154401 14.8091 0.955927 16.9465 2.63532 17.977C2.90249 18.1297 3.1315 18.2442 3.39867 18.3205C3.55135 18.3969 20.7269 25.4961 20.7269 25.4961C21.4139 25.8015 22.2155 25.6106 22.6735 25.0381C23.246 24.3129 23.1315 23.2824 22.4063 22.7099Z" fill="url(#paint2_linear_1010_592)"/>
<path d="M19.4294 0C18.7806 0 18.1699 0.229008 17.6737 0.572519L2.48288 10.8015C2.44471 10.8397 2.40654 10.8397 2.40654 10.8779H2.36837C1.71952 11.3359 1.18517 12.0229 0.879822 12.8244C0.040127 15.0382 1.18517 17.5191 3.39891 18.3206C4.77295 18.855 6.2615 18.5878 7.36837 17.7863C7.63555 17.5954 7.86456 17.4046 8.0554 17.1756L21.2615 5.26718C21.9485 4.73282 22.4065 3.89313 22.4065 2.93893C22.4065 1.33588 21.0707 0 19.4294 0V0Z" fill="url(#paint3_linear_1010_592)"/>
<path d="M13.8188 14.2749H33.2845V33.7406H13.8188V14.2749Z" fill="black"/>
<path d="M15.4982 30.0764H22.7883V31.2978H15.4982V30.0764ZM15.4219 19.3894L15.9944 18.855C16.1471 19.0459 16.2997 19.1604 16.4906 19.1604C16.7196 19.1604 16.8341 19.0077 16.8341 18.7023V16.6794H17.712V18.7023C17.712 19.084 17.5974 19.3894 17.4066 19.5802C17.2158 19.771 16.9104 19.8855 16.5287 19.8855C15.9562 19.9237 15.6509 19.6947 15.4219 19.3894ZM17.9028 16.7176H20.46V17.4428H18.7807V17.939H20.3074V18.626H18.7807V19.1222H20.4982V19.8855H17.941L17.9028 16.7176ZM21.6051 17.481H20.6509V16.7176H23.4371V17.481H22.4829V19.8855H21.6051V17.481ZM15.4982 20.6107H17.1394C17.5211 20.6107 17.8265 20.7252 18.0173 20.8779C18.1318 20.9924 18.2081 21.1833 18.2081 21.4123C18.2081 21.7939 18.0173 21.9848 17.712 22.1375C18.0936 22.252 18.3226 22.481 18.3226 22.9008C18.3226 23.4352 17.8646 23.7787 17.1394 23.7787H15.4982V20.6107ZM17.3303 21.6031C17.3303 21.4123 17.1776 21.3359 16.9486 21.3359H16.3761V21.9085H16.9104C17.1776 21.8703 17.3303 21.7939 17.3303 21.6031ZM17.0249 22.5191H16.3379V23.0917H17.0249C17.2921 23.0917 17.4448 22.9772 17.4448 22.7863C17.4448 22.5955 17.2921 22.5191 17.0249 22.5191ZM18.4753 20.6107H19.9639C20.46 20.6107 20.7654 20.7252 20.9944 20.9543C21.1852 21.1451 21.2616 21.3741 21.2616 21.6794C21.2616 22.1756 20.9944 22.481 20.6127 22.6718L21.3761 23.7787H20.3837L19.7348 22.8245H19.3532V23.7787H18.4753V20.6107ZM19.9257 22.1375C20.231 22.1375 20.3837 21.9848 20.3837 21.7558C20.3837 21.4886 20.1929 21.3741 19.9257 21.3741H19.3532V22.1375H19.9257Z" fill="white"/>
<path d="M22.292 20.6107H23.1317L24.4676 23.8168H23.5134L23.2844 23.2443H22.063L21.834 23.8168H20.918L22.292 20.6107ZM23.0554 22.5191L22.7119 21.6412L22.3683 22.5191H23.0554ZM24.5821 20.6107H25.46V23.7786H24.5821V20.6107ZM25.689 20.6107H26.4905L27.7882 22.2901V20.6107H28.6661V23.7786H27.9027L26.5668 22.0611V23.8168H25.689V20.6107ZM28.7424 23.3206L29.2386 22.7481C29.5439 23.0153 29.8874 23.1298 30.2691 23.1298C30.4981 23.1298 30.6508 23.0534 30.6508 22.9008C30.6508 22.7481 30.5363 22.7099 30.1164 22.5954C29.4294 22.4427 28.9332 22.2519 28.9332 21.603C28.9332 21.0305 29.3912 20.5725 30.1546 20.5725C30.689 20.5725 31.1088 20.7252 31.4523 20.9924L30.9943 21.603C30.689 21.4122 30.3836 21.2977 30.1164 21.2977C29.8874 21.2977 29.8111 21.374 29.8111 21.4885C29.8111 21.6412 29.9256 21.6794 30.3454 21.7939C31.0706 21.9466 31.5287 22.1756 31.5287 22.7862C31.5287 23.4351 31.0325 23.8168 30.2309 23.8168C29.6584 23.855 29.1241 23.6641 28.7424 23.3206Z" fill="white"/>
</g>
<defs>
<linearGradient id="paint0_linear_1010_592" x1="12.766" y1="41.1612" x2="38.3957" y2="25.6922" gradientUnits="userSpaceOnUse">
<stop stop-color="#FCEE39"/>
<stop offset="1" stop-color="#F37B3D"/>
</linearGradient>
<linearGradient id="paint1_linear_1010_592" x1="19.071" y1="4.18796" x2="44.7556" y2="26.674" gradientUnits="userSpaceOnUse">
<stop stop-color="#EF5A6B"/>
<stop offset="0.57" stop-color="#F26F4E"/>
<stop offset="1" stop-color="#F37B3D"/>
</linearGradient>
<linearGradient id="paint2_linear_1010_592" x1="20.821" y1="20.9579" x2="6.98587" y2="12.3179" gradientUnits="userSpaceOnUse">
<stop stop-color="#7C59A4"/>
<stop offset="0.3852" stop-color="#AF4C92"/>
<stop offset="0.7654" stop-color="#DC4183"/>
<stop offset="0.957" stop-color="#ED3D7D"/>
</linearGradient>
<linearGradient id="paint3_linear_1010_592" x1="20.5263" y1="3.56052" x2="6.46862" y2="15.1709" gradientUnits="userSpaceOnUse">
<stop stop-color="#EF5A6B"/>
<stop offset="0.364" stop-color="#EE4E72"/>
<stop offset="1" stop-color="#ED3D7D"/>
</linearGradient>
<clipPath id="clip0_1010_592">
<rect width="46.1832" height="50" fill="white" transform="translate(0.612793)"/>
</clipPath>
</defs>
</svg>
